<?xml version="1.0" encoding="UTF-8" standalone="no"?>
<!DOCTYPE svg PUBLIC "-//W3C//DTD SVG 1.1//EN"
 "http://www.w3.org/Graphics/SVG/1.1/DTD/svg11.dtd">
<!-- Generated by graphviz version 5.0.0 (20220707.1540)
 -->
<!-- Title: dependencies Pages: 1 -->
<svg width="518pt" height="174pt"
 viewBox="0.00 0.00 518.00 173.80" xmlns="http://www.w3.org/2000/svg" xmlns:xlink="http://www.w3.org/1999/xlink">
<g id="graph0" class="graph" transform="scale(1 1) rotate(0) translate(4 169.8)">
<title>dependencies</title>
<polygon fill="white" stroke="transparent" points="-4,4 -4,-169.8 514,-169.8 514,4 -4,4"/>
<text text-anchor="middle" x="255" y="-8.2" font-family="sans-serif" font-size="14.00">dependencies</text>
<g id="clust1" class="cluster">
<title>cluster_AppModule</title>
<polygon fill="none" stroke="black" stroke-dasharray="1,5" points="8,-32.8 8,-157.8 502,-157.8 502,-32.8 8,-32.8"/>
</g>
<g id="clust3" class="cluster">
<title>cluster_AppModule_imports</title>
<polygon fill="none" stroke="black" points="154,-40.8 154,-92.8 494,-92.8 494,-40.8 154,-40.8"/>
</g>
<g id="clust6" class="cluster">
<title>cluster_AppModule_providers</title>
<polygon fill="none" stroke="black" points="16,-40.8 16,-92.8 146,-92.8 146,-40.8 16,-40.8"/>
</g>
<!-- AuthModule -->
<g id="node1" class="node">
<title>AuthModule</title>
<polygon fill="#8dd3c7" stroke="black" points="485.55,-84.8 482.55,-88.8 461.55,-88.8 458.55,-84.8 398.45,-84.8 398.45,-48.8 485.55,-48.8 485.55,-84.8"/>
<text text-anchor="middle" x="442" y="-62.6" font-family="Times,serif" font-size="14.00">AuthModule</text>
</g>
<!-- AppModule -->
<g id="node4" class="node">
<title>AppModule</title>
<polygon fill="#8dd3c7" stroke="black" points="249.66,-149.8 246.66,-153.8 225.66,-153.8 222.66,-149.8 166.34,-149.8 166.34,-113.8 249.66,-113.8 249.66,-149.8"/>
<text text-anchor="middle" x="208" y="-127.6" font-family="Times,serif" font-size="14.00">AppModule</text>
</g>
<!-- AuthModule&#45;&gt;AppModule -->
<g id="edge1" class="edge">
<title>AuthModule&#45;&gt;AppModule</title>
<path fill="none" stroke="black" d="M442,-85.08C442,-106.12 442,-137.8 442,-137.8 442,-137.8 259.83,-137.8 259.83,-137.8"/>
<polygon fill="black" stroke="black" points="259.83,-134.3 249.83,-137.8 259.83,-141.3 259.83,-134.3"/>
</g>
<!-- ExampleModule -->
<g id="node2" class="node">
<title>ExampleModule</title>
<polygon fill="#8dd3c7" stroke="black" points="380.81,-84.8 377.81,-88.8 356.81,-88.8 353.81,-84.8 271.19,-84.8 271.19,-48.8 380.81,-48.8 380.81,-84.8"/>
<text text-anchor="middle" x="326" y="-62.6" font-family="Times,serif" font-size="14.00">ExampleModule</text>
</g>
<!-- ExampleModule&#45;&gt;AppModule -->
<g id="edge2" class="edge">
<title>ExampleModule&#45;&gt;AppModule</title>
<path fill="none" stroke="black" d="M326,-84.82C326,-102.17 326,-125.8 326,-125.8 326,-125.8 259.93,-125.8 259.93,-125.8"/>
<polygon fill="black" stroke="black" points="259.93,-122.3 249.93,-125.8 259.93,-129.3 259.93,-122.3"/>
</g>
<!-- UsersModule -->
<g id="node3" class="node">
<title>UsersModule</title>
<polygon fill="#8dd3c7" stroke="black" points="253.94,-84.8 250.94,-88.8 229.94,-88.8 226.94,-84.8 162.06,-84.8 162.06,-48.8 253.94,-48.8 253.94,-84.8"/>
<text text-anchor="middle" x="208" y="-62.6" font-family="Times,serif" font-size="14.00">UsersModule</text>
</g>
<!-- UsersModule&#45;&gt;AppModule -->
<g id="edge3" class="edge">
<title>UsersModule&#45;&gt;AppModule</title>
<path fill="none" stroke="black" d="M194.06,-84.91C194.06,-84.91 194.06,-103.79 194.06,-103.79"/>
<polygon fill="black" stroke="black" points="190.56,-103.79 194.06,-113.79 197.56,-103.79 190.56,-103.79"/>
</g>
<!-- UsersModule&#45;&gt;AppModule -->
<g id="edge4" class="edge">
<title>UsersModule&#45;&gt;AppModule</title>
<path fill="none" stroke="black" d="M221.94,-84.91C221.94,-84.91 221.94,-103.79 221.94,-103.79"/>
<polygon fill="black" stroke="black" points="218.44,-103.79 221.94,-113.79 225.44,-103.79 218.44,-103.79"/>
</g>
<!-- AppService -->
<g id="node5" class="node">
<title>AppService</title>
<ellipse fill="#fdb462" stroke="black" cx="81" cy="-66.8" rx="56.75" ry="18"/>
<text text-anchor="middle" x="81" y="-62.6" font-family="Times,serif" font-size="14.00">AppService</text>
</g>
<!-- AppService&#45;&gt;AppModule -->
<g id="edge5" class="edge">
<title>AppService&#45;&gt;AppModule</title>
<path fill="none" stroke="black" d="M81,-84.91C81,-104.14 81,-131.8 81,-131.8 81,-131.8 156.06,-131.8 156.06,-131.8"/>
<polygon fill="black" stroke="black" points="156.06,-135.3 166.06,-131.8 156.06,-128.3 156.06,-135.3"/>
</g>
</g>
</svg>
